<svg xmlns="http://www.w3.org/2000/svg" xmlns:xlink="http://www.w3.org/1999/xlink" version="1.1" x="0px" y="0px" viewBox="0 0 48 60" enable-background="new 0 0 48 48" xml:space="preserve"><g><path d="M13.886,48c-0.016,0-0.031,0-0.047-0.001C6.307,47.645,0.357,41.695,0.001,34.16c-0.013-0.281,0.093-0.555,0.292-0.754   L33.406,0.293c0.198-0.199,0.475-0.299,0.754-0.292c7.535,0.355,13.484,6.305,13.839,13.838c0.013,0.281-0.093,0.555-0.292,0.754   L14.593,47.707C14.405,47.896,14.15,48,13.886,48z M2.027,34.501c0.499,6.146,5.327,10.976,11.471,11.473l32.476-32.476   C45.477,7.353,40.647,2.524,34.501,2.027L2.027,34.501z"/><path d="M22.614,33.035c-0.709,0-1.375-0.274-1.877-0.772l-4.998-4.999c-1.034-1.036-1.034-2.72,0-3.755l7.767-7.769   c1.006-1.002,2.754-1,3.756,0l4.994,4.998c0.5,0.499,0.776,1.166,0.776,1.876c0,0.711-0.275,1.378-0.776,1.879l-7.764,7.768   C23.99,32.76,23.324,33.035,22.614,33.035z M25.385,16.964c-0.177,0-0.343,0.068-0.467,0.191l-7.764,7.767   c-0.255,0.256-0.255,0.672,0,0.928l4.995,4.996c0.244,0.241,0.684,0.244,0.929-0.001l7.764-7.768   c0.123-0.123,0.19-0.288,0.19-0.464c0-0.176-0.067-0.339-0.189-0.461l-4.995-4.998C25.726,17.032,25.561,16.964,25.385,16.964z"/><g><circle cx="36.15" cy="4.589" r="0.525"/><circle cx="33.619" cy="7.12" r="0.525"/><circle cx="31.091" cy="9.651" r="0.524"/><circle cx="28.559" cy="12.181" r="0.524"/></g><g><circle cx="43.411" cy="11.849" r="0.524"/><circle cx="40.879" cy="14.379" r="0.525"/><circle cx="38.35" cy="16.91" r="0.525"/><circle cx="35.818" cy="19.44" r="0.524"/></g><path d="M39.094,9.646c-0.203,0.206-0.537,0.206-0.738,0c-0.207-0.203-0.207-0.535,0-0.741c0.201-0.204,0.535-0.204,0.738,0   C39.301,9.11,39.301,9.442,39.094,9.646z"/><circle cx="36.195" cy="11.806" r="0.524"/><circle cx="33.664" cy="14.336" r="0.525"/><g><circle cx="12.391" cy="28.35" r="0.524"/><circle cx="9.859" cy="30.88" r="0.524"/><path d="M7.699,33.781c-0.204,0.205-0.536,0.205-0.739,0c-0.207-0.204-0.207-0.536,0-0.74c0.204-0.207,0.536-0.207,0.739,0    C7.906,33.245,7.906,33.577,7.699,33.781z"/><circle cx="4.798" cy="35.942" r="0.525"/></g><g><circle cx="19.65" cy="35.609" r="0.524"/><circle cx="17.12" cy="38.14" r="0.524"/><circle cx="14.591" cy="40.67" r="0.525"/><circle cx="12.058" cy="43.2" r="0.523"/></g><path d="M15.333,33.406c-0.204,0.207-0.536,0.207-0.739,0c-0.207-0.204-0.207-0.535,0-0.74c0.204-0.205,0.536-0.205,0.739,0   C15.54,32.871,15.54,33.202,15.333,33.406z"/><circle cx="12.434" cy="35.566" r="0.525"/><path d="M10.275,38.469c-0.206,0.205-0.539,0.205-0.743,0c-0.207-0.205-0.207-0.539,0-0.744c0.204-0.201,0.537-0.201,0.743,0   C10.479,37.93,10.479,38.264,10.275,38.469z"/></g><text x="0" y="63" fill="#000000" font-size="5px" font-weight="bold" font-family="'Helvetica Neue', Helvetica, Arial-Unicode, Arial, Sans-serif">Created by Creative Stall</text><text x="0" y="68" fill="#000000" font-size="5px" font-weight="bold" font-family="'Helvetica Neue', Helvetica, Arial-Unicode, Arial, Sans-serif">from the Noun Project</text></svg>